HIERARCHY
ROOT Hips
{
	OFFSET 0.00000 0.00000 0.00000
	CHANNELS 6 Xposition Yposition Zposition Zrotation Yrotation Xrotation 
	JOINT LHipJoint
	{
		OFFSET 0 0 0
		CHANNELS 3 Zrotation Yrotation Xrotation
		JOINT LeftUpLeg
		{
			OFFSET 1.56857 -1.73443 1.15205
			CHANNELS 3 Zrotation Yrotation Xrotation
			JOINT LeftLeg
			{
				OFFSET 2.39362 -6.57643 0.00000
				CHANNELS 3 Zrotation Yrotation Xrotation
				JOINT LeftFoot
				{
					OFFSET 2.50952 -6.89485 0.00000
					CHANNELS 3 Zrotation Yrotation Xrotation
					JOINT LeftToeBase
					{
						OFFSET 0.17171 -0.47178 1.88682
						CHANNELS 3 Zrotation Yrotation Xrotation
						End Site
						{
							OFFSET 0.00000 -0.00000 0.98146
						}
					}
				}
			}
		}
	}
	JOINT RHipJoint
	{
		OFFSET 0 0 0
		CHANNELS 3 Zrotation Yrotation Xrotation
		JOINT RightUpLeg
		{
			OFFSET -1.28153 -1.73443 1.15205
			CHANNELS 3 Zrotation Yrotation Xrotation
			JOINT RightLeg
			{
				OFFSET -2.26861 -6.23296 0.00000
				CHANNELS 3 Zrotation Yrotation Xrotation
				JOINT RightFoot
				{
					OFFSET -2.54143 -6.98254 0.00000
					CHANNELS 3 Zrotation Yrotation Xrotation
					JOINT RightToeBase
					{
						OFFSET -0.23309 -0.64041 1.93119
						CHANNELS 3 Zrotation Yrotation Xrotation
						End Site
						{
							OFFSET -0.00000 -0.00000 1.02013
						}
					}
				}
			}
		}
	}
	JOINT LowerBack
	{
		OFFSET 0 0 0
		CHANNELS 3 Zrotation Yrotation Xrotation
		JOINT Spine
		{
			OFFSET -0.07096 2.10460 -0.27878
			CHANNELS 3 Zrotation Yrotation Xrotation
			JOINT Spine1
			{
				OFFSET -0.00826 2.13662 -0.08279
				CHANNELS 3 Zrotation Yrotation Xrotation
				JOINT Neck
				{
					OFFSET 0 0 0
					CHANNELS 3 Zrotation Yrotation Xrotation
					JOINT Neck1
					{
						OFFSET 0.03239 1.77799 0.24435
						CHANNELS 3 Zrotation Yrotation Xrotation
						JOINT Head
						{
							OFFSET 0.01026 1.74194 -0.49664
							CHANNELS 3 Zrotation Yrotation Xrotation
							End Site
							{
								OFFSET 0.00170 1.83057 -0.19653
							}
						}
					}
				}
				JOINT LeftShoulder
				{
					OFFSET 0 0 0
					CHANNELS 3 Zrotation Yrotation Xrotation
					JOINT LeftArm
					{
						OFFSET 3.19178 1.35907 -0.31412
						CHANNELS 3 Zrotation Yrotation Xrotation
						JOINT LeftForeArm
						{
							OFFSET 4.85247 -0.00000 -0.00000
							CHANNELS 3 Zrotation Yrotation Xrotation
							JOINT LeftHand
							{
								OFFSET 3.55584 -0.00000 0.00000
								CHANNELS 3 Zrotation Yrotation Xrotation
								JOINT LeftFingerBase
								{
									OFFSET 0 0 0
									CHANNELS 3 Zrotation Yrotation Xrotation
									JOINT LeftHandIndex1
									{
										OFFSET 0.69320 -0.00000 0.00000
										CHANNELS 3 Zrotation Yrotation Xrotation
										End Site
										{
											OFFSET 0.55888 -0.00000 0.00000
										}
									}
								}
								JOINT LThumb
								{
									OFFSET 0 0 0
									CHANNELS 3 Zrotation Yrotation Xrotation
									End Site
									{
										OFFSET 0.56741 -0.00000 0.56741
									}
								}
							}
						}
					}
				}
				JOINT RightShoulder
				{
					OFFSET 0 0 0
					CHANNELS 3 Zrotation Yrotation Xrotation
					JOINT RightArm
					{
						OFFSET -3.28999 1.24191 -0.26899
						CHANNELS 3 Zrotation Yrotation Xrotation
						JOINT RightForeArm
						{
							OFFSET -4.64462 -0.00000 0.00000
							CHANNELS 3 Zrotation Yrotation Xrotation
							JOINT RightHand
							{
								OFFSET -3.40703 -0.00000 0.00000
								CHANNELS 3 Zrotation Yrotation Xrotation
								JOINT RightFingerBase
								{
									OFFSET 0 0 0
									CHANNELS 3 Zrotation Yrotation Xrotation
									JOINT RightHandIndex1
									{
										OFFSET -0.61958 -0.00000 0.00000
										CHANNELS 3 Zrotation Yrotation Xrotation
										End Site
										{
											OFFSET -0.49952 -0.00000 0.00000
										}
									}
								}
								JOINT RThumb
								{
									OFFSET 0 0 0
									CHANNELS 3 Zrotation Yrotation Xrotation
									End Site
									{
										OFFSET -0.50715 -0.00000 0.50715
									}
								}
							}
						}
					}
				}
			}
		}
	}
}
MOTION
Frames: 6
Frame Time: .0083333
-29.3029 17.1188 1.2402 0 0 0 0 0 0 -21 0 0 0 0 0 0 0 0 0 0 0 0 0 0 21 0 0 0 0 0 0 0 0 0 0 0 0 0 0 0 0 0 0 0 0 0 0 -16 0 0 21 0 0 11 0 0 0 -8 0 0 0 0 0 0 0 0 0 0 0 0 0 0 0 0 0 0 0 0 8 0 0 0 0 0 0 0 0 0 0 0 0 0 0 0 0 0
-29.3029 17.1188 1.2402 22.9434 85.6005 22.1956 0.0000 0.0000 0.0000 -16.7313 3.3882 11.8691 0.0167 -0.8334 -2.2904 0.2785 7.9795 -15.9023 0.0228 -0.9759 -2.6824 0.0000 0.0000 0.0000 11.2574 -7.1404 6.3081 -0.0234 -0.9884 2.7170 -0.7476 2.6146 -15.6578 -0.0011 -0.2170 0.5961 -3.4535 2.1103 5.6787 -1.0906 2.5423 -0.6569 0.5767 1.3303 -3.9654 4.9027 2.5872 -21.2987 -1.1573 2.3841 21.1390 -0.8569 1.3943 10.3672 0.0000 -0.0000 0.0000 -86.5606 2.9433 39.6252 12.4587 -20.4890 -2.2603 -0.0000 -0.0000 11.8241 12.0754 -23.9145 -4.9564 -7.1250 0.0000 -0.0000 -10.6002 5.9341 9.6175 0.0000 -0.0000 0.0000 0.0000 -0.0000 -0.0000 0.0000 -0.0000 -0.0000 0.0000 0.0000 0.0000 0.0000 0.0000 0.0000 0.0000 0.0000 0.0000 0.0000 -0.0000 0.0000
-29.3044 17.1127 1.2416 26.5481 85.2887 25.7690 0.0000 0.0000 0.0000 -17.0222 3.9305 11.5960 0.0144 -0.7749 -2.1297 0.2517 7.8244 -15.3753 0.0529 -1.4841 -4.0819 0.0000 0.0000 0.0000 10.8535 -6.7155 6.3891 -0.0244 -1.0080 2.7707 -0.7662 2.4946 -15.8794 -0.0006 -0.1570 0.4313 -3.9744 2.1633 5.7490 -1.1292 2.5728 -0.6624 0.8210 1.3579 -4.0342 4.8333 2.6394 -21.3533 -1.1305 2.4709 21.1944 -0.8221 1.4321 10.3988 -0.0000 -0.0000 0.0000 -86.6705 2.9665 39.4665 12.4302 -20.4467 -2.2503 -0.0000 -0.0000 11.8148 12.4617 -24.0922 -5.1548 -7.1250 0.0000 -0.0000 -10.3698 5.7110 9.4461 -0.0000 -0.0000 0.0000 0.0000 -0.0000 -0.0000 0.0000 -0.0000 -0.0000 0.0000 0.0000 0.0000 0.0000 0.0000 0.0000 0.0000 0.0000 0.0000 0.0000 -0.0000 0.0000
-29.3033 17.1121 1.2415 24.8518 85.4608 24.1257 0.0000 0.0000 0.0000 -16.7167 4.0827 11.4602 0.0139 -0.7621 -2.0943 0.2372 7.7246 -15.0661 0.0943 -1.9809 -5.4527 0.0000 0.0000 0.0000 11.1021 -6.8505 6.3168 -0.0245 -1.0111 2.7794 -0.7658 2.5759 -15.8612 -0.0002 -0.0799 0.2196 -3.7735 2.1074 5.7045 -1.0668 2.5154 -0.6763 0.7805 1.3251 -4.0146 4.8740 2.6463 -21.3253 -1.1937 2.4845 21.1791 -0.8496 1.4338 10.3899 -0.0000 0.0000 0.0000 -86.7104 2.9689 39.3366 12.4113 -20.4186 -2.2437 -0.0000 -0.0000 11.8738 12.5143 -24.1305 -5.1848 -7.1250 0.0000 -0.0000 -10.3392 5.6665 9.4261 -0.0000 0.0000 0.0000 0.0000 -0.0000 -0.0000 0.0000 -0.0000 -0.0000 0.0000 0.0000 0.0000 0.0000 0.0000 0.0000 0.0000 0.0000 0.0000 0.0000 -0.0000 0.0000
-29.2996 17.1157 1.2369 26.9719 85.5160 26.0722 0.0000 0.0000 0.0000 -16.9791 3.8339 11.7850 0.0155 -0.8027 -2.2061 0.2359 7.9055 -15.2391 0.0826 -1.8543 -5.1031 0.0000 0.0000 0.0000 10.8462 -7.0426 6.5557 -0.0227 -0.9727 2.6737 -0.7583 2.5923 -15.7773 -0.0003 -0.1093 0.3002 -3.8835 2.0676 5.8357 -1.0678 2.4502 -0.6175 0.8436 1.2948 -4.0294 5.0261 2.6450 -21.2727 -1.4691 2.5045 21.1331 -0.9706 1.4207 10.3699 0.0000 -0.0000 0.0000 -86.7879 2.9119 39.2919 12.3785 -20.3699 -2.2323 -0.0000 -0.0000 11.9138 12.3494 -24.0348 -5.0957 -7.1250 0.0000 -0.0000 -10.4364 5.7817 9.4945 0.0000 -0.0000 0.0000 0.0000 -0.0000 -0.0000 0.0000 -0.0000 -0.0000 0.0000 0.0000 0.0000 0.0000 0.0000 0.0000 0.0000 0.0000 0.0000 0.0000 -0.0000 0.0000
-29.2960 17.1130 1.2420 25.3580 85.3231 24.5079 0.0000 0.0000 0.0000 -16.9034 4.0303 11.7926 0.0172 -0.8468 -2.3274 0.2546 7.8372 -15.4287 0.0520 -1.4710 -4.0458 0.0000 0.0000 0.0000 10.9710 -6.8364 6.5438 -0.0225 -0.9680 2.6608 -0.7539 2.5800 -15.7319 -0.0004 -0.1354 0.3720 -3.9659 2.1467 5.7063 -1.0187 2.5581 -0.6077 0.9351 1.3495 -3.9573 5.0782 2.6495 -21.3352 -1.5797 2.5177 21.1545 -1.0163 1.4169 10.3918 0.0000 -0.0000 0.0000 -86.8429 2.9205 39.1863 12.1891 -20.0876 -2.1668 -0.0000 -0.0000 12.8075 13.6789 -24.4181 -5.7454 -7.1250 0.0000 -0.0000 -9.6381 5.2334 8.8477 0.0000 -0.0000 0.0000 0.0000 -0.0000 -0.0000 0.0000 -0.0000 -0.0000 0.0000 0.0000 0.0000 0.0000 0.0000 0.0000 0.0000 0.0000 0.0000 0.0000 -0.0000 0.0000
